<?xml version="1.0" encoding="utf-8"?>
<!-- Svg Vector Icons : http://www.onlinewebfonts.com/icon -->
<!DOCTYPE svg PUBLIC "-//W3C//DTD SVG 1.1//EN" "http://www.w3.org/Graphics/SVG/1.1/DTD/svg11.dtd">
<svg version="1.1" xmlns="http://www.w3.org/2000/svg" xmlns:xlink="http://www.w3.org/1999/xlink" x="0px" y="0px" viewBox="0 0 1000 1000" enable-background="new 0 0 1000 1000" xml:space="preserve">
<metadata> Svg Vector Icons : http://www.onlinewebfonts.com/icon </metadata>
<g><g transform="translate(0.000000,511.000000) scale(0.100000,-0.100000)"><path d="M1297.3,3408.5c-76.5-28.2-177.1-108.7-229.4-185.1l-92.6-136.8V587.2v-2499.3l-446.7-446.8C114-2777.5,81.8-2817.7,106-2926.4c16.1-68.4,72.5-165,128.8-217.4l104.6-96.6H5000h4660.6l104.6,96.6c56.3,52.4,112.7,148.9,128.8,217.4c24.2,108.7-8,148.9-422.6,567.5l-446.7,446.8l-8.1,2543.6l-12.1,2539.6l-96.6,104.6c-56.3,56.3-165,120.7-241.5,144.9C8445.1,3481,1478.4,3468.9,1297.3,3408.5z M8561.9,542.9v-2455.1H5000H1438.2l-12.1,2414.8c-4,1328.2,0,2439,12.1,2467.1c12.1,40.2,748.6,48.3,3569.9,40.2l3553.8-12.1V542.9z M6066.5-2580.3c100.6-92.6,169-181.1,157-201.2c-28.2-48.3-2418.8-48.3-2447,0c-12.1,20.1,56.3,108.7,157,201.2l181.1,165H5000h885.4L6066.5-2580.3z"/></g></g>
</svg>