<?xml version="1.0" encoding="utf-8"?>
<!-- Svg Vector Icons : http://www.onlinewebfonts.com/icon -->
<!DOCTYPE svg PUBLIC "-//W3C//DTD SVG 1.1//EN" "http://www.w3.org/Graphics/SVG/1.1/DTD/svg11.dtd">
<svg version="1.1" xmlns="http://www.w3.org/2000/svg" xmlns:xlink="http://www.w3.org/1999/xlink" x="0px" y="0px" viewBox="0 0 1000 1000" enable-background="new 0 0 1000 1000" xml:space="preserve">
<metadata> Svg Vector Icons : http://www.onlinewebfonts.com/icon </metadata>
<g><path d="M687.5,10h-375C269.1,10,234,45.1,234,88.5v823c0,43.4,35.1,78.5,78.5,78.5h375c43.4,0,78.5-35.1,78.5-78.5v-823C766,45.1,730.9,10,687.5,10z M458.4,81.9h88c5.3,0,9.5,4.3,9.5,9.5c0,5.3-4.3,9.5-9.5,9.5h-88c-5.3,0-9.5-4.3-9.5-9.5C448.9,86.1,453.1,81.9,458.4,81.9z M502.4,944.9c-21,0-38.1-17-38.1-38.1c0-21,17-38.1,38.1-38.1c21,0,38.1,17,38.1,38.1C540.4,927.9,523.4,944.9,502.4,944.9z M706.3,827.7H293.7V172.3h412.7V827.7z"/></g>
</svg>